<svg width="128" height="128" viewBox="0 0 128 128" fill="none" xmlns="http://www.w3.org/2000/svg">
<rect width="128" height="128" rx="16" fill="#620A93"/>
<mask id="mask0_322_73" style="mask-type:alpha" maskUnits="userSpaceOnUse" x="0" y="0" width="128" height="128">
<rect width="128" height="128" rx="16" fill="#D9D9D9"/>
</mask>
<g mask="url(#mask0_322_73)">
<path d="M4 105.5C4.00031 54.875 27.6253 38 31.0003 38C34.3753 38 58 54.875 58 105.5V129.125C58 138.445 50.4448 146 41.125 146H20.875C11.5552 146 4 138.445 4 129.125V105.5Z" fill="#FF10F0"/>
<path d="M10.7503 104.962C10.7503 61.4757 30.1566 44.75 31.0003 44.75C31.8441 44.75 51.2503 61.4757 51.2503 104.962V125.75C51.2503 133.206 45.2061 139.25 37.7503 139.25H24.2503C16.7945 139.25 10.7503 133.206 10.7503 125.75V104.962Z" fill="white"/>
<path d="M19.1878 113.938C19.1878 110.21 22.2099 107.188 25.9378 107.188H36.0628C39.7907 107.188 42.8128 110.21 42.8128 113.938V124.063C42.8128 127.79 39.7907 130.813 36.0628 130.813H25.9378C22.2099 130.813 19.1878 127.79 19.1878 124.063V113.938Z" fill="#FF10F0"/>
<path d="M25.0941 104.656L22.5628 90.3125C15.8128 93.6875 14.1253 98.75 14.1253 103.813L19.1878 108.031L25.0941 104.656Z" fill="#1F3A7A"/>
<path d="M36.9066 104.656L39.4378 90.3125C46.1878 93.6875 47.8753 98.75 47.8753 103.813L42.8128 108.031L36.9066 104.656Z" fill="#1F3A7A"/>
<path d="M25.9378 89.4686C28.4691 88.625 33.5316 88.6251 36.0628 89.4685L34.7972 103.812L27.2034 103.812L25.9378 89.4686Z" fill="#1F3A7A"/>
<path d="M124 22.5C124 73.125 100.375 90 96.9997 90C93.6247 90 70 73.125 70 22.5L70 -1.125C70 -10.4448 77.5552 -18 86.875 -18L107.125 -18C116.445 -18 124 -10.4448 124 -1.125V22.5Z" fill="#9B00FF"/>
<path d="M117.25 23.0376C117.25 66.5243 97.8434 83.25 96.9997 83.25C96.1559 83.25 76.7497 66.5243 76.7497 23.0376L76.7497 2.24999C76.7497 -5.20586 82.7939 -11.25 90.2497 -11.25L103.75 -11.25C111.206 -11.25 117.25 -5.20585 117.25 2.24999L117.25 23.0376Z" fill="white"/>
<path d="M108.812 14.0625C108.812 17.7904 105.79 20.8125 102.062 20.8125H91.9372C88.2093 20.8125 85.1872 17.7904 85.1872 14.0625L85.1872 3.93749C85.1872 0.209568 88.2093 -2.81251 91.9372 -2.81251L102.062 -2.81251C105.79 -2.81251 108.812 0.209569 108.812 3.93749L108.812 14.0625Z" fill="#9B00FF"/>
<path d="M102.906 23.3437L105.437 37.6875C112.187 34.3125 113.875 29.25 113.875 24.1875L108.812 19.9687L102.906 23.3437Z" fill="#1F3A7A"/>
<path d="M91.0934 23.3437L88.5622 37.6875C81.8122 34.3125 80.1247 29.25 80.1247 24.1875L85.1872 19.9687L91.0934 23.3437Z" fill="#1F3A7A"/>
<path d="M102.062 38.5315C99.5309 39.375 94.4684 39.3749 91.9372 38.5315L93.2028 24.1882L100.797 24.1882L102.062 38.5315Z" fill="#1F3A7A"/>
</g>
</svg>
